<svg xmlns="http://www.w3.org/2000/svg" viewBox="0 0 122.73 184.02"><defs><style>.cls-1{fill:#231f20;}.cls-2{fill:#c6b259;}.cls-3{fill:#65add0;}.cls-4{fill:#5b6351;}.cls-5{fill:#273d7d;}.cls-6{fill:#3a504b;}.cls-7{fill:#b36f3e;}.cls-8{fill:#875b94;}.cls-9{fill:#8d7dad;}.cls-10{fill:#cc3127;}.cls-11{fill:#cc592d;}.cls-12{fill:#005789;}.cls-13{fill:#43888d;}.cls-14{fill:#e26c2d;}</style></defs><title>k-logo</title><g id="Layer_2" data-name="Layer 2"><g id="Layer_1-2" data-name="Layer 1"><path class="cls-1" d="M81.38,183.86,42.74,120.6l21.45-23L122.73,184Z"/><path d="M95.35,63.69,71.08,90.27c1.47-13.05-1.43-23.07-15.75-26.58Z"/><rect class="cls-2" x="0.17" y="141.49" width="34.94" height="14.16"/><rect class="cls-3" x="0.18" y="155.65" width="34.93" height="14.16"/><rect class="cls-4" x="0.2" y="169.81" width="34.92" height="14.16" transform="matrix(1, 0, 0, 1, -0.21, 0.02)"/><rect class="cls-5" x="0.08" y="70.7" width="34.97" height="14.16"/><rect class="cls-6" x="0.1" y="84.85" width="34.97" height="14.16"/><rect class="cls-7" x="0.12" y="99.01" width="34.96" height="14.16"/><rect class="cls-8" x="0.13" y="113.17" width="34.95" height="14.16"/><rect class="cls-9" x="0.15" y="127.33" width="34.94" height="14.16"/><rect class="cls-10" x="0.01" y="14.12" width="35.01" height="14.1"/><rect class="cls-11" x="0.03" y="28.22" width="35" height="14.16"/><rect class="cls-12" x="0.05" y="42.38" width="34.99" height="14.16"/><rect class="cls-13" x="0.07" y="56.54" width="34.98" height="14.16"/><polygon class="cls-14" points="35.01 0 0 8.83 0.01 14.12 35.02 14.12 35.01 0"/></g></g></svg>